<svg xmlns="http://www.w3.org/2000/svg" width="512" height="512" viewBox="0 0 512 512">
  <rect width="512" height="512" fill="#161824"/>
  <g transform="translate(105.48 352.14) scale(0.87562)">
    <path d="M80.70 0L12.90 0L12.90-7.80L37.80-10.50Q38.10-21.90 38.25-36.90Q38.40-51.90 38.40-63L38.40-63L38.40-77.70Q38.40-105.90 37.50-126.90L37.50-126.90L11.10-127.80L11.10-135.60L47.70-144.60L51.30-142.20L53.10-104.70Q60-123 73.05-134.25Q86.10-145.50 100.80-145.50L100.80-145.50Q108-145.50 113.70-142.80Q119.40-140.10 121.20-136.20L121.20-136.20Q121.20-123 108.90-123L108.90-123Q104.40-123 100.80-124.95Q97.20-126.90 92.70-130.80L92.70-130.80L89.40-133.50Q66.30-124.20 53.10-90L53.10-90L53.10-63Q53.10-51.90 53.25-36.90Q53.40-21.90 53.70-10.50L53.70-10.50L80.70-7.80L80.70 0ZM162.90 1.80L123.90 0L123.90-7.80L149.40-10.20Q149.70-21.60 149.85-36.75Q150-51.90 150-63L150-63L150-207.30L123.60-208.50L123.60-216.30L160.50-223.50L165-221.10L164.10-178.50L164.10-121.20Q175.20-134.40 187.95-139.95Q200.70-145.50 212.70-145.50L212.70-145.50Q229.80-145.50 242.85-136.35Q255.90-127.20 263.10-110.85Q270.30-94.50 270.30-72.60L270.30-72.60Q270.30-49.50 262.65-32.25Q255-15 241.50-5.55Q228 3.90 210 3.90L210 3.90Q198.60 3.90 186.75-1.20Q174.90-6.30 164.10-19.20L164.10-19.20L162.90 1.80ZM208.50-134.40L208.50-134.40Q198-134.40 187.35-129.60Q176.70-124.80 164.40-111.90L164.40-111.90L164.40-28.50Q175.50-17.40 186-12.30Q196.50-7.20 207.90-7.20L207.90-7.20Q220.50-7.20 231-13.95Q241.50-20.70 247.95-34.95Q254.40-49.20 254.40-71.70L254.40-71.70Q254.40-102.60 241.50-118.50Q228.60-134.40 208.50-134.40Z" fill="#f8f8f2"/>
    <path d="M318.30 3.90L318.30 3.90Q312.00 3.90 307.95-0.45Q303.90-4.80 303.90-10.20L303.90-10.20Q303.90-16.20 307.95-20.25Q312.00-24.30 318.30-24.30L318.30-24.30Q324.60-24.30 328.65-20.25Q332.70-16.20 332.70-10.20L332.70-10.20Q332.70-4.80 328.65-0.45Q324.60 3.90 318.30 3.90Z" fill="#ff5555"/>
  </g>
</svg>